<svg width="96" height="24" viewBox="0 0 96 24" fill="none" xmlns="http://www.w3.org/2000/svg">
<path d="M0.649859 12.08C0.649859 10.512 0.957859 9.04667 1.57386 7.684C2.18986 6.30267 3.02053 5.09867 4.06586 4.072C5.12986 3.04533 6.36186 2.23333 7.76186 1.636C9.18053 1.03867 10.6739 0.74 12.2419 0.74C13.8285 0.74 15.3219 1.03867 16.7219 1.636C18.1405 2.23333 19.3725 3.04533 20.4179 4.072C21.4819 5.09867 22.3125 6.30267 22.9099 7.684C23.5259 9.04667 23.8339 10.512 23.8339 12.08C23.8339 13.648 23.5259 15.1227 22.9099 16.504C22.3125 17.8667 21.4819 19.0613 20.4179 20.088C19.3725 21.1147 18.1405 21.9267 16.7219 22.524C15.3219 23.1213 13.8285 23.42 12.2419 23.42C10.6739 23.42 9.18053 23.1213 7.76186 22.524C6.36186 21.9267 5.12986 21.1147 4.06586 20.088C3.02053 19.0613 2.18986 17.8667 1.57386 16.504C0.957859 15.1227 0.649859 13.648 0.649859 12.08ZM6.30586 12.08C6.30586 12.9013 6.45519 13.676 6.75386 14.404C7.07119 15.132 7.50053 15.7667 8.04186 16.308C8.58319 16.8307 9.20853 17.2507 9.91786 17.568C10.6459 17.8667 11.4205 18.016 12.2419 18.016C13.0819 18.016 13.8565 17.8667 14.5659 17.568C15.2939 17.2507 15.9192 16.8307 16.4419 16.308C16.9832 15.7667 17.4032 15.132 17.7019 14.404C18.0192 13.676 18.1779 12.9013 18.1779 12.08C18.1779 11.2587 18.0192 10.484 17.7019 9.756C17.4032 9.028 16.9832 8.40267 16.4419 7.88C15.9192 7.33867 15.2939 6.91867 14.5659 6.62C13.8565 6.30267 13.0819 6.144 12.2419 6.144C11.4205 6.144 10.6459 6.30267 9.91786 6.62C9.20853 6.91867 8.58319 7.33867 8.04186 7.88C7.50053 8.40267 7.07119 9.028 6.75386 9.756C6.45519 10.484 6.30586 11.2587 6.30586 12.08ZM31.5483 12.08C31.5483 10.512 31.8563 9.04667 32.4723 7.684C33.0883 6.30267 33.919 5.09867 34.9643 4.072C36.0283 3.04533 37.2603 2.23333 38.6603 1.636C40.079 1.03867 41.5723 0.74 43.1403 0.74C44.727 0.74 46.2203 1.03867 47.6203 1.636C49.039 2.23333 50.271 3.04533 51.3163 4.072C52.3803 5.09867 53.211 6.30267 53.8083 7.684C54.4243 9.04667 54.7323 10.512 54.7323 12.08C54.7323 13.648 54.4243 15.1227 53.8083 16.504C53.211 17.8667 52.3803 19.0613 51.3163 20.088C50.271 21.1147 49.039 21.9267 47.6203 22.524C46.2203 23.1213 44.727 23.42 43.1403 23.42C41.5723 23.42 40.079 23.1213 38.6603 22.524C37.2603 21.9267 36.0283 21.1147 34.9643 20.088C33.919 19.0613 33.0883 17.8667 32.4723 16.504C31.8563 15.1227 31.5483 13.648 31.5483 12.08ZM37.2043 12.08C37.2043 12.9013 37.3536 13.676 37.6523 14.404C37.9696 15.132 38.399 15.7667 38.9403 16.308C39.4816 16.8307 40.107 17.2507 40.8163 17.568C41.5443 17.8667 42.319 18.016 43.1403 18.016C43.9803 18.016 44.755 17.8667 45.4643 17.568C46.1923 17.2507 46.8176 16.8307 47.3403 16.308C47.8816 15.7667 48.3016 15.132 48.6003 14.404C48.9176 13.676 49.0763 12.9013 49.0763 12.08C49.0763 11.2587 48.9176 10.484 48.6003 9.756C48.3016 9.028 47.8816 8.40267 47.3403 7.88C46.8176 7.33867 46.1923 6.91867 45.4643 6.62C44.755 6.30267 43.9803 6.144 43.1403 6.144C42.319 6.144 41.5443 6.30267 40.8163 6.62C40.107 6.91867 39.4816 7.33867 38.9403 7.88C38.399 8.40267 37.9696 9.028 37.6523 9.756C37.3536 10.484 37.2043 11.2587 37.2043 12.08ZM63.4827 1.16H73.1147C74.5707 1.16 75.8307 1.39333 76.8947 1.86C77.9774 2.308 78.8734 2.924 79.5827 3.708C80.2921 4.47333 80.8147 5.36 81.1507 6.368C81.5054 7.376 81.6827 8.43067 81.6827 9.532C81.6827 10.6893 81.5054 11.7813 81.1507 12.808C80.8147 13.8347 80.2921 14.74 79.5827 15.524C78.8734 16.2893 77.9774 16.9053 76.8947 17.372C75.8307 17.82 74.5707 18.044 73.1147 18.044H69.0827V23H63.4827V1.16ZM69.0827 6.256V12.948H72.8067C73.9827 12.948 74.8134 12.6307 75.2987 11.996C75.7841 11.3427 76.0267 10.5307 76.0267 9.56C76.0267 9.13067 75.9707 8.72 75.8587 8.328C75.7467 7.91733 75.5601 7.56267 75.2987 7.264C75.0374 6.94667 74.7014 6.704 74.2907 6.536C73.8801 6.34933 73.3854 6.256 72.8067 6.256H69.0827ZM95.8796 1.16V23H90.2796V1.16H95.8796Z" fill="white"/>
</svg>
